<svg xmlns="http://www.w3.org/2000/svg" xmlns:xlink="http://www.w3.org/1999/xlink" width="200" zoomAndPan="magnify" viewBox="0 0 150 149.999998" height="200" preserveAspectRatio="xMidYMid meet" version="1.0"><defs><clipPath id="d7b97d5f65"><path d="M 28.664062 63.003906 L 102.453125 63.003906 L 102.453125 124.765625 L 28.664062 124.765625 Z M 28.664062 63.003906 " clip-rule="nonzero"/></clipPath><clipPath id="e75496b44c"><path d="M 64 38.324219 L 120 38.324219 L 120 100 L 64 100 Z M 64 38.324219 " clip-rule="nonzero"/></clipPath><clipPath id="45ff0d1d81"><path d="M 30 82 L 78 82 L 78 111.824219 L 30 111.824219 Z M 30 82 " clip-rule="nonzero"/></clipPath><clipPath id="e3e448f330"><path d="M 38.316406 81.746094 L 70.515625 81.746094 L 70.515625 107.34375 L 38.316406 107.34375 Z M 38.316406 81.746094 " clip-rule="nonzero"/></clipPath><clipPath id="5142a3a9c0"><path d="M 45.066406 81.746094 L 63.714844 81.746094 C 65.503906 81.746094 67.222656 82.457031 68.488281 83.722656 C 69.753906 84.988281 70.464844 86.703125 70.464844 88.496094 L 70.464844 100.59375 C 70.464844 102.386719 69.753906 104.101562 68.488281 105.367188 C 67.222656 106.632812 65.503906 107.34375 63.714844 107.34375 L 45.066406 107.34375 C 41.339844 107.34375 38.316406 104.324219 38.316406 100.59375 L 38.316406 88.496094 C 38.316406 84.765625 41.339844 81.746094 45.066406 81.746094 Z M 45.066406 81.746094 " clip-rule="nonzero"/></clipPath><clipPath id="5a0db8b55b"><path d="M 38.316406 55.0625 L 67.5 55.0625 L 67.5 81.746094 L 38.316406 81.746094 Z M 38.316406 55.0625 " clip-rule="nonzero"/></clipPath><clipPath id="fa60316f15"><path d="M 45.066406 55.0625 L 60.679688 55.0625 C 62.46875 55.0625 64.1875 55.773438 65.453125 57.042969 C 66.71875 58.308594 67.429688 60.023438 67.429688 61.8125 L 67.429688 74.996094 C 67.429688 76.785156 66.71875 78.503906 65.453125 79.769531 C 64.1875 81.035156 62.46875 81.746094 60.679688 81.746094 L 45.066406 81.746094 C 41.339844 81.746094 38.316406 78.722656 38.316406 74.996094 L 38.316406 61.8125 C 38.316406 58.085938 41.339844 55.0625 45.066406 55.0625 Z M 45.066406 55.0625 " clip-rule="nonzero"/></clipPath><clipPath id="ca233f9643"><path d="M 37.445312 47.960938 L 70 47.960938 L 70 81.710938 L 37.445312 81.710938 Z M 37.445312 47.960938 " clip-rule="nonzero"/></clipPath></defs><g clip-path="url(#d7b97d5f65)"><path fill="#15203d" d="M 28.664062 63.003906 L 102.488281 63.003906 L 102.488281 124.765625 L 28.664062 124.765625 Z M 28.664062 63.003906 " fill-opacity="1" fill-rule="nonzero"/></g><path fill="#e3caab" d="M 85.695312 80.066406 C 86.589844 80.066406 87.5 79.722656 88.1875 79.035156 L 102.214844 65.019531 C 103.59375 63.640625 103.59375 61.410156 102.214844 60.027344 C 100.832031 58.648438 98.601562 58.648438 97.222656 60.027344 L 85.695312 71.550781 L 81.222656 67.078125 C 79.84375 65.699219 77.613281 65.699219 76.234375 67.078125 C 74.851562 68.457031 74.851562 70.6875 76.234375 72.070312 L 83.199219 79.035156 C 83.886719 79.722656 84.796875 80.066406 85.695312 80.066406 Z M 85.695312 80.066406 " fill-opacity="1" fill-rule="nonzero"/><g clip-path="url(#e75496b44c)"><path fill="#e3caab" d="M 89.359375 38.328125 C 79.125 38.328125 70.0625 43.347656 64.476562 51.089844 C 66.507812 52.363281 68.304688 54.019531 69.683594 55.945312 C 73.917969 49.59375 81.136719 45.390625 89.359375 45.390625 C 102.363281 45.390625 112.949219 55.972656 112.949219 68.980469 C 112.949219 81.984375 102.363281 92.566406 89.359375 92.566406 C 86.96875 92.566406 84.664062 92.21875 82.519531 91.566406 C 82.953125 92.925781 83.273438 94.363281 83.445312 95.828125 L 83.472656 96.046875 L 83.746094 99.117188 C 85.5625 99.4375 87.441406 99.636719 89.359375 99.636719 C 106.238281 99.636719 120 85.90625 120 68.996094 C 120 52.089844 106.238281 38.328125 89.359375 38.328125 Z M 89.359375 38.328125 " fill-opacity="1" fill-rule="nonzero"/></g><g clip-path="url(#45ff0d1d81)"><path fill="#e3caab" d="M 64.882812 82.464844 C 64.269531 82.277344 63.617188 82.636719 63.398438 83.238281 L 57.039062 101.441406 L 55.574219 89.554688 L 56.546875 89.554688 C 57.132812 89.554688 57.605469 89.070312 57.605469 88.484375 L 57.605469 85.214844 C 57.605469 84.628906 57.132812 84.15625 56.546875 84.15625 L 51.21875 84.15625 C 50.632812 84.15625 50.160156 84.628906 50.160156 85.214844 L 50.160156 88.484375 C 50.160156 89.070312 50.632812 89.554688 51.21875 89.554688 L 52.191406 89.554688 L 50.726562 101.453125 L 44.363281 83.25 C 44.15625 82.644531 43.496094 82.285156 42.882812 82.472656 C 36.652344 84.410156 31.878906 89.816406 31.066406 96.613281 L 30.234375 106.367188 C 30 109.191406 32.230469 111.628906 35.066406 111.628906 L 72.699219 111.667969 C 75.542969 111.667969 77.785156 109.238281 77.539062 106.402344 L 76.714844 96.613281 C 75.894531 89.816406 71.121094 84.410156 64.882812 82.464844 Z M 64.882812 82.464844 " fill-opacity="1" fill-rule="nonzero"/></g><path fill="#e3caab" d="M 58.863281 55.75 C 59.648438 56.074219 60.390625 56.472656 61.097656 56.941406 C 61.800781 57.414062 62.453125 57.949219 63.050781 58.546875 C 63.652344 59.148438 64.1875 59.800781 64.65625 60.503906 C 65.128906 61.210938 65.527344 61.953125 65.851562 62.738281 C 66.175781 63.519531 66.421875 64.328125 66.585938 65.160156 C 66.75 65.988281 66.832031 66.828125 66.832031 67.675781 C 66.832031 68.523438 66.75 69.363281 66.585938 70.195312 C 66.421875 71.027344 66.175781 71.835938 65.851562 72.617188 C 65.527344 73.402344 65.128906 74.144531 64.65625 74.847656 C 64.1875 75.554688 63.652344 76.207031 63.050781 76.804688 C 62.453125 77.40625 61.800781 77.941406 61.097656 78.410156 C 60.390625 78.882812 59.648438 79.28125 58.863281 79.605469 C 58.082031 79.929688 57.273438 80.171875 56.441406 80.339844 C 55.609375 80.503906 54.769531 80.585938 53.921875 80.585938 C 53.074219 80.585938 52.238281 80.503906 51.40625 80.339844 C 50.574219 80.171875 49.765625 79.929688 48.984375 79.605469 C 48.199219 79.28125 47.457031 78.882812 46.75 78.410156 C 46.046875 77.941406 45.394531 77.40625 44.796875 76.804688 C 44.195312 76.207031 43.660156 75.554688 43.191406 74.847656 C 42.71875 74.144531 42.320312 73.402344 41.996094 72.617188 C 41.671875 71.835938 41.425781 71.027344 41.261719 70.195312 C 41.097656 69.363281 41.015625 68.523438 41.015625 67.675781 C 41.015625 66.828125 41.097656 65.988281 41.261719 65.160156 C 41.425781 64.328125 41.671875 63.519531 41.996094 62.738281 C 42.320312 61.953125 42.71875 61.210938 43.191406 60.503906 C 43.660156 59.800781 44.195312 59.148438 44.796875 58.546875 C 45.394531 57.949219 46.046875 57.414062 46.75 56.941406 C 47.457031 56.472656 48.199219 56.074219 48.984375 55.75 C 49.765625 55.425781 50.574219 55.179688 51.40625 55.015625 C 52.238281 54.851562 53.074219 54.765625 53.921875 54.765625 C 54.769531 54.765625 55.609375 54.851562 56.441406 55.015625 C 57.273438 55.179688 58.082031 55.425781 58.863281 55.75 Z M 58.863281 55.75 " fill-opacity="1" fill-rule="nonzero"/><g clip-path="url(#e3e448f330)"><g clip-path="url(#5142a3a9c0)"><path fill="#e3caab" d="M 38.316406 81.746094 L 70.417969 81.746094 L 70.417969 107.34375 L 38.316406 107.34375 Z M 38.316406 81.746094 " fill-opacity="1" fill-rule="nonzero"/></g></g><g clip-path="url(#5a0db8b55b)"><g clip-path="url(#fa60316f15)"><path fill="#15203d" d="M 38.316406 55.0625 L 67.394531 55.0625 L 67.394531 81.746094 L 38.316406 81.746094 Z M 38.316406 55.0625 " fill-opacity="1" fill-rule="nonzero"/></g></g><g clip-path="url(#ca233f9643)"><path fill="#e3caab" d="M 37.910156 67.949219 C 37.457031 72.972656 39.0625 76.824219 40.582031 79.261719 C 41.539062 80.800781 43.316406 81.734375 44.824219 81.554688 C 46.332031 81.375 47.535156 80.890625 47.957031 80.046875 C 48.378906 79.203125 48.738281 78.332031 48.738281 78.332031 C 48.738281 78.332031 47.050781 77.550781 45.679688 73.414062 C 44.179688 68.894531 47.53125 59.371094 47.53125 59.371094 C 47.53125 59.371094 50.613281 62.566406 54.859375 63.269531 C 59.109375 63.972656 62.273438 66.859375 63.027344 71.066406 C 63.601562 74.261719 59.453125 78.421875 59.453125 78.421875 C 59.453125 78.421875 60.949219 81.3125 63.34375 81.070312 C 65.734375 80.832031 67.449219 80.347656 68.578125 77.714844 C 69.609375 75.320312 70.445312 70.085938 68.769531 63.046875 C 67.722656 58.644531 65.660156 53.460938 63.027344 51.457031 C 60.398438 49.453125 56.722656 47.984375 53.695312 47.976562 C 49.515625 47.960938 47.699219 51.03125 47.171875 51.03125 C 46.292969 51.03125 43.875 51.71875 42.464844 53.761719 C 38.847656 59.007812 38.382812 62.703125 37.910156 67.949219 " fill-opacity="1" fill-rule="nonzero"/></g></svg>