<svg xmlns="http://www.w3.org/2000/svg" xmlns:xlink="http://www.w3.org/1999/xlink" width="200" zoomAndPan="magnify" viewBox="0 0 150 149.999998" height="200" preserveAspectRatio="xMidYMid meet" version="1.0"><defs><clipPath id="8a96af4742"><path d="M 26.800781 9.722656 L 134.800781 9.722656 L 134.800781 32 L 26.800781 32 Z M 26.800781 9.722656 " clip-rule="nonzero"/></clipPath><clipPath id="a4920d8568"><path d="M 71 131 L 74 131 L 74 140.222656 L 71 140.222656 Z M 71 131 " clip-rule="nonzero"/></clipPath><clipPath id="f30de08018"><path d="M 42 75 L 85 75 L 85 140.222656 L 42 140.222656 Z M 42 75 " clip-rule="nonzero"/></clipPath></defs><rect x="-15" width="180" fill="#ffffff" y="-15" height="179.999997" fill-opacity="1"/><rect x="-15" width="180" fill="#15203d" y="-15" height="179.999997" fill-opacity="1"/><g clip-path="url(#8a96af4742)"><path fill="#e3caab" d="M 75.546875 27.308594 C 76.910156 26.75 78.28125 26.351562 79.507812 26.140625 L 80.828125 20.90625 L 91.339844 22.660156 C 91.261719 23.121094 91.371094 23.589844 91.644531 23.972656 C 91.917969 24.355469 92.324219 24.609375 92.789062 24.6875 C 92.886719 24.703125 92.980469 24.710938 93.078125 24.710938 C 93.921875 24.710938 94.671875 24.097656 94.816406 23.238281 L 95.625 23.371094 C 95.464844 24.332031 96.113281 25.242188 97.074219 25.402344 C 97.171875 25.417969 97.269531 25.425781 97.367188 25.425781 C 97.730469 25.425781 98.085938 25.3125 98.386719 25.097656 C 98.769531 24.824219 99.023438 24.417969 99.101562 23.953125 L 99.910156 24.085938 C 99.832031 24.550781 99.941406 25.019531 100.214844 25.402344 C 100.488281 25.785156 100.894531 26.039062 101.359375 26.113281 C 101.457031 26.132812 101.554688 26.140625 101.648438 26.140625 C 102.496094 26.140625 103.242188 25.527344 103.386719 24.667969 L 104.195312 24.800781 C 104.035156 25.757812 104.6875 26.667969 105.644531 26.828125 C 105.742188 26.84375 105.839844 26.851562 105.9375 26.851562 C 106.300781 26.851562 106.65625 26.742188 106.957031 26.523438 C 107.339844 26.25 107.59375 25.84375 107.671875 25.378906 L 108.480469 25.515625 C 108.324219 26.472656 108.972656 27.382812 109.929688 27.542969 C 110.027344 27.558594 110.125 27.566406 110.222656 27.566406 C 110.589844 27.566406 110.941406 27.453125 111.246094 27.238281 C 111.628906 26.964844 111.882812 26.558594 111.957031 26.09375 L 112.769531 26.230469 C 112.691406 26.691406 112.796875 27.160156 113.074219 27.542969 C 113.34375 27.925781 113.753906 28.179688 114.214844 28.257812 C 114.3125 28.273438 114.410156 28.28125 114.507812 28.28125 C 115.351562 28.28125 116.101562 27.667969 116.246094 26.808594 L 117.054688 26.941406 C 116.894531 27.902344 117.542969 28.8125 118.503906 28.96875 C 118.601562 28.988281 118.695312 28.996094 118.792969 28.996094 C 119.636719 28.996094 120.386719 28.382812 120.53125 27.523438 L 121.339844 27.65625 C 121.179688 28.613281 121.828125 29.523438 122.789062 29.683594 C 122.886719 29.699219 122.984375 29.707031 123.082031 29.707031 C 123.445312 29.707031 123.800781 29.597656 124.101562 29.378906 C 124.484375 29.105469 124.738281 28.699219 124.816406 28.234375 L 125.625 28.371094 C 125.464844 29.328125 126.113281 30.238281 127.074219 30.398438 C 127.171875 30.414062 127.269531 30.421875 127.363281 30.421875 C 128.210938 30.421875 128.957031 29.808594 129.101562 28.949219 L 129.910156 29.085938 C 129.835938 29.546875 129.941406 30.015625 130.214844 30.398438 C 130.488281 30.78125 130.894531 31.035156 131.359375 31.113281 C 131.457031 31.128906 131.554688 31.136719 131.652344 31.136719 C 132.496094 31.136719 133.242188 30.523438 133.386719 29.664062 L 134.636719 29.871094 L 134.988281 27.757812 L 80.457031 18.667969 C 80.105469 18.167969 79.582031 17.78125 78.9375 17.617188 C 78.148438 17.417969 77.347656 17.601562 76.734375 18.050781 L 27.15625 9.789062 L 26.800781 11.902344 L 75.605469 20.035156 L 73.875 26.90625 C 74.445312 26.984375 75.003906 27.125 75.535156 27.3125 C 75.539062 27.3125 75.542969 27.308594 75.546875 27.308594 Z M 92.894531 24.035156 C 92.605469 23.988281 92.351562 23.828125 92.179688 23.589844 C 92.007812 23.347656 91.941406 23.058594 91.988281 22.765625 L 94.164062 23.128906 C 94.0625 23.730469 93.496094 24.136719 92.894531 24.035156 Z M 98.003906 24.558594 C 97.761719 24.730469 97.472656 24.796875 97.179688 24.75 C 96.582031 24.648438 96.175781 24.082031 96.273438 23.480469 L 98.449219 23.84375 C 98.402344 24.132812 98.242188 24.386719 98.003906 24.558594 Z M 101.464844 25.464844 C 101.175781 25.414062 100.921875 25.257812 100.75 25.015625 C 100.578125 24.777344 100.511719 24.484375 100.558594 24.195312 L 102.734375 24.558594 C 102.636719 25.15625 102.066406 25.5625 101.464844 25.464844 Z M 106.574219 25.988281 C 106.332031 26.160156 106.042969 26.226562 105.75 26.179688 C 105.152344 26.078125 104.746094 25.507812 104.84375 24.910156 L 107.019531 25.273438 C 106.972656 25.5625 106.8125 25.816406 106.574219 25.988281 Z M 111.304688 25.984375 C 111.257812 26.277344 111.097656 26.53125 110.859375 26.703125 C 110.621094 26.875 110.328125 26.941406 110.039062 26.894531 C 109.4375 26.792969 109.03125 26.222656 109.132812 25.625 Z M 114.324219 27.605469 C 114.03125 27.558594 113.777344 27.398438 113.605469 27.160156 C 113.4375 26.921875 113.367188 26.628906 113.417969 26.339844 L 115.59375 26.699219 C 115.492188 27.300781 114.925781 27.707031 114.324219 27.605469 Z M 118.609375 28.320312 C 118.007812 28.222656 117.601562 27.652344 117.703125 27.050781 L 119.878906 27.414062 C 119.777344 28.015625 119.210938 28.421875 118.609375 28.320312 Z M 124.164062 28.128906 C 124.113281 28.417969 123.957031 28.671875 123.714844 28.84375 C 123.476562 29.015625 123.183594 29.082031 122.894531 29.035156 C 122.292969 28.933594 121.886719 28.367188 121.988281 27.765625 Z M 127.179688 29.75 C 126.578125 29.648438 126.171875 29.078125 126.273438 28.480469 L 128.449219 28.84375 C 128.347656 29.441406 127.777344 29.847656 127.179688 29.75 Z M 131.464844 30.464844 C 131.175781 30.414062 130.921875 30.257812 130.75 30.015625 C 130.578125 29.777344 130.511719 29.484375 130.558594 29.195312 L 132.734375 29.558594 C 132.632812 30.15625 132.066406 30.5625 131.464844 30.464844 Z M 131.464844 30.464844 " fill-opacity="1" fill-rule="nonzero"/></g><path fill="#e3caab" d="M 84.839844 92.996094 L 78.105469 92.996094 L 77.875 94.644531 L 85.222656 94.644531 L 88.695312 109.691406 L 75.746094 109.691406 L 75.515625 111.339844 L 89.074219 111.339844 L 92.546875 126.382812 L 73.386719 126.382812 L 73.15625 128.03125 L 92.925781 128.03125 L 93.476562 130.421875 L 94.238281 133.71875 L 95.59375 139.59375 L 98.5625 139.59375 L 97.207031 133.71875 L 96.445312 130.421875 L 84.582031 79.011719 L 81.613281 79.011719 Z M 84.839844 92.996094 " fill-opacity="1" fill-rule="nonzero"/><path fill="#e3caab" d="M 66.28125 86.804688 L 65.28125 92.007812 L 67.015625 92.007812 Z M 66.28125 86.804688 " fill-opacity="1" fill-rule="nonzero"/><path fill="#e3caab" d="M 69.375 108.699219 L 67.527344 95.632812 L 64.597656 95.632812 L 66.445312 108.699219 Z M 69.375 108.699219 " fill-opacity="1" fill-rule="nonzero"/><path fill="#e3caab" d="M 70.167969 114.300781 L 69.886719 112.328125 L 66.957031 112.328125 L 68.703125 124.671875 Z M 70.167969 114.300781 " fill-opacity="1" fill-rule="nonzero"/><g clip-path="url(#a4920d8568)"><path fill="#e3caab" d="M 71.457031 140.042969 L 73.828125 140.207031 L 72.910156 133.71875 L 72.632812 131.738281 Z M 71.457031 140.042969 " fill-opacity="1" fill-rule="nonzero"/></g><path fill="#e3caab" d="M 65.953125 78.019531 L 68.175781 78.019531 L 68.433594 76.472656 L 66.34375 77.800781 C 66.214844 77.878906 66.085938 77.953125 65.953125 78.019531 Z M 65.953125 78.019531 " fill-opacity="1" fill-rule="nonzero"/><g clip-path="url(#f30de08018)"><path fill="#e3caab" d="M 45.738281 139.59375 L 48.40625 128.03125 L 69.226562 128.03125 L 67.503906 140.207031 L 70.464844 140 L 79.222656 78.019531 L 84.65625 78.019531 L 84.65625 75.601562 L 78.605469 75.601562 L 76.703125 87.074219 C 76.46875 88.484375 75.660156 89.664062 74.542969 90.398438 L 74.175781 92.996094 L 65.09375 92.996094 L 64.773438 94.644531 L 73.941406 94.644531 L 71.816406 109.691406 L 52.640625 109.691406 L 53.382812 106.472656 C 52.960938 105.5625 52.804688 104.523438 53.007812 103.46875 L 56.75 83.972656 L 56.136719 81.671875 L 42.769531 139.59375 Z M 52.257812 111.339844 L 71.585938 111.339844 L 69.457031 126.382812 L 48.789062 126.382812 Z M 52.257812 111.339844 " fill-opacity="1" fill-rule="nonzero"/></g><path fill="#e3caab" d="M 53.550781 68.160156 L 57.765625 83.9375 L 53.980469 103.652344 C 53.570312 105.800781 54.972656 107.875 57.121094 108.285156 C 57.371094 108.335938 57.621094 108.359375 57.871094 108.359375 C 59.730469 108.359375 61.386719 107.039062 61.753906 105.144531 L 65.707031 84.539062 C 65.820312 83.949219 65.800781 83.347656 65.644531 82.769531 L 64.25 77.542969 C 64.789062 77.464844 65.320312 77.277344 65.8125 76.964844 L 73.003906 72.398438 L 73.566406 73.214844 L 69.554688 75.761719 L 67.921875 85.617188 C 67.5625 87.773438 69.023438 89.8125 71.179688 90.167969 C 71.398438 90.203125 71.613281 90.222656 71.828125 90.222656 C 73.730469 90.222656 75.40625 88.847656 75.730469 86.910156 L 79.027344 67.019531 C 79.03125 66.992188 79.03125 66.964844 79.035156 66.941406 C 79.046875 66.871094 79.050781 66.800781 79.058594 66.730469 C 79.0625 66.671875 79.070312 66.609375 79.074219 66.546875 C 79.074219 66.480469 79.074219 66.414062 79.074219 66.347656 C 79.074219 66.285156 79.074219 66.21875 79.070312 66.15625 C 79.066406 66.09375 79.0625 66.03125 79.054688 65.96875 C 79.046875 65.902344 79.042969 65.835938 79.03125 65.769531 C 79.023438 65.710938 79.007812 65.648438 78.996094 65.585938 C 78.984375 65.523438 78.972656 65.457031 78.957031 65.394531 C 78.941406 65.332031 78.921875 65.273438 78.902344 65.214844 C 78.882812 65.148438 78.863281 65.085938 78.839844 65.023438 C 78.820312 64.964844 78.796875 64.910156 78.773438 64.851562 C 78.746094 64.789062 78.71875 64.726562 78.6875 64.664062 C 78.664062 64.609375 78.636719 64.558594 78.609375 64.507812 C 78.574219 64.441406 78.539062 64.378906 78.5 64.316406 C 78.488281 64.292969 78.476562 64.273438 78.464844 64.25 C 78.445312 64.222656 78.421875 64.195312 78.40625 64.167969 C 78.367188 64.109375 78.324219 64.050781 78.28125 63.996094 C 78.242188 63.941406 78.203125 63.894531 78.164062 63.84375 C 78.125 63.796875 78.082031 63.75 78.039062 63.703125 C 77.992188 63.652344 77.945312 63.601562 77.898438 63.554688 C 77.855469 63.511719 77.8125 63.472656 77.765625 63.433594 C 77.714844 63.386719 77.664062 63.339844 77.609375 63.296875 C 77.5625 63.257812 77.515625 63.222656 77.464844 63.1875 C 77.414062 63.148438 77.359375 63.109375 77.304688 63.074219 C 77.25 63.039062 77.195312 63.003906 77.140625 62.96875 C 77.085938 62.9375 77.035156 62.910156 76.980469 62.878906 C 76.917969 62.847656 76.855469 62.816406 76.792969 62.789062 C 76.742188 62.761719 76.6875 62.738281 76.632812 62.714844 C 76.570312 62.691406 76.503906 62.664062 76.4375 62.644531 C 76.382812 62.621094 76.324219 62.605469 76.265625 62.585938 C 76.199219 62.566406 76.136719 62.550781 76.074219 62.535156 C 76.007812 62.515625 75.941406 62.503906 75.875 62.492188 C 75.839844 62.484375 75.804688 62.472656 75.769531 62.46875 C 75.742188 62.460938 75.71875 62.460938 75.691406 62.457031 C 75.621094 62.449219 75.550781 62.441406 75.480469 62.433594 C 75.421875 62.429688 75.363281 62.421875 75.304688 62.421875 C 75.234375 62.417969 75.160156 62.417969 75.089844 62.417969 C 75.03125 62.417969 74.972656 62.417969 74.917969 62.421875 C 74.84375 62.425781 74.769531 62.433594 74.695312 62.441406 C 74.640625 62.445312 74.589844 62.453125 74.535156 62.460938 C 74.457031 62.472656 74.382812 62.488281 74.304688 62.503906 C 74.257812 62.511719 74.207031 62.523438 74.160156 62.535156 C 74.082031 62.554688 74.003906 62.578125 73.929688 62.601562 C 73.882812 62.617188 73.835938 62.628906 73.792969 62.648438 C 73.71875 62.671875 73.644531 62.703125 73.570312 62.738281 C 73.523438 62.757812 73.480469 62.773438 73.433594 62.796875 C 73.363281 62.828125 73.296875 62.867188 73.226562 62.902344 C 73.179688 62.929688 73.132812 62.953125 73.089844 62.980469 C 73.058594 63 73.03125 63.011719 73.003906 63.03125 L 72.546875 63.320312 L 72.863281 61.96875 L 75.175781 52.125 L 82.28125 57.316406 C 82.738281 57.648438 83.285156 57.824219 83.839844 57.824219 C 84.070312 57.824219 84.300781 57.792969 84.53125 57.734375 L 94.449219 55.039062 L 94.992188 54.890625 L 95.113281 55.464844 L 98.535156 54.734375 L 98.417969 54.167969 L 98.222656 53.984375 C 98.40625 53.90625 98.578125 53.808594 98.738281 53.695312 C 99.601562 53.070312 100.035156 51.957031 99.738281 50.867188 C 99.554688 50.195312 99.128906 49.65625 98.578125 49.316406 C 98.277344 49.132812 97.945312 49.007812 97.59375 48.953125 L 102.433594 47.914062 L 102.304688 47.308594 L 103.050781 47.148438 L 102.964844 46.742188 L 103.496094 46.628906 L 103.429688 46.328125 L 105.71875 45.839844 L 105.582031 45.199219 L 111.984375 43.828125 L 111.882812 43.347656 L 105.476562 44.71875 L 105.335938 44.058594 L 103.050781 44.546875 L 102.984375 44.246094 L 102.453125 44.359375 L 102.367188 43.953125 L 93.726562 45.808594 C 92.84375 45.996094 92.28125 46.863281 92.46875 47.746094 C 92.800781 49.28125 94.132812 49.058594 94.132812 49.058594 L 94.597656 49.53125 L 93.976562 49.699219 L 84.371094 52.308594 L 75.734375 46 C 75.457031 45.796875 75.152344 45.65625 74.839844 45.578125 C 74.628906 45.457031 74.402344 45.367188 74.15625 45.308594 L 66.832031 43.589844 L 68.269531 42.367188 C 66.804688 41.453125 65.625 40.09375 64.941406 38.414062 C 64.925781 38.378906 64.914062 38.34375 64.898438 38.308594 L 59.625 42.789062 C 59.398438 42.980469 59.214844 43.199219 59.070312 43.441406 C 58.898438 43.691406 58.765625 43.980469 58.691406 44.296875 L 54.222656 63.332031 L 53.628906 65.863281 C 53.382812 66.578125 53.339844 67.375 53.550781 68.160156 Z M 93.511719 46.851562 L 96.738281 46.164062 L 96.808594 46.5 L 93.585938 47.191406 Z M 93.769531 48.058594 L 93.695312 47.71875 L 96.921875 47.03125 L 96.996094 47.367188 Z M 93.769531 48.058594 " fill-opacity="1" fill-rule="nonzero"/><path fill="#e3caab" d="M 75.527344 42.105469 C 79.171875 40.613281 80.992188 36.558594 79.753906 32.878906 C 78.074219 33.324219 76.558594 33.488281 75.480469 33.363281 C 76.195312 33.164062 76.945312 32.910156 77.707031 32.597656 C 81.332031 31.117188 83.871094 28.9375 83.378906 27.730469 C 82.882812 26.523438 79.546875 26.742188 75.921875 28.222656 C 75.796875 28.273438 75.675781 28.328125 75.554688 28.378906 C 73.8125 27.660156 71.800781 27.597656 69.917969 28.367188 C 66.125 29.917969 64.304688 34.25 65.855469 38.042969 C 67.402344 41.835938 71.734375 43.652344 75.527344 42.105469 Z M 75.527344 42.105469 " fill-opacity="1" fill-rule="nonzero"/></svg>