<svg xmlns="http://www.w3.org/2000/svg" xmlns:xlink="http://www.w3.org/1999/xlink" width="200" zoomAndPan="magnify" viewBox="0 0 150 149.999998" height="200" preserveAspectRatio="xMidYMid meet" version="1.0"><defs><clipPath id="124e79cfac"><path d="M 26.136719 19.074219 L 32 19.074219 L 32 130.824219 L 26.136719 130.824219 Z M 26.136719 19.074219 " clip-rule="nonzero"/></clipPath><clipPath id="ff3b762071"><path d="M 33 31 L 82 31 L 82 130.824219 L 33 130.824219 Z M 33 31 " clip-rule="nonzero"/></clipPath><clipPath id="de6955ffb6"><path d="M 121 30 L 123.636719 30 L 123.636719 31 L 121 31 Z M 121 30 " clip-rule="nonzero"/></clipPath></defs><rect x="-15" width="180" fill="#ffffff" y="-15" height="179.999997" fill-opacity="1"/><rect x="-15" width="180" fill="#15203d" y="-15" height="179.999997" fill-opacity="1"/><path fill="#e3caab" d="M 61.519531 57.675781 C 65.855469 55.90625 68.019531 51.085938 66.546875 46.710938 C 64.550781 47.238281 62.746094 47.433594 61.46875 47.285156 C 62.316406 47.046875 63.207031 46.746094 64.113281 46.378906 C 68.421875 44.617188 71.441406 42.023438 70.855469 40.589844 C 70.722656 40.273438 70.421875 40.042969 69.996094 39.886719 C 68.488281 39.347656 65.34375 39.804688 61.988281 41.175781 C 61.839844 41.234375 61.699219 41.296875 61.554688 41.359375 C 59.484375 40.503906 57.089844 40.429688 54.851562 41.347656 C 50.339844 43.1875 48.179688 48.335938 50.019531 52.847656 C 51.863281 57.359375 57.011719 59.519531 61.519531 57.675781 Z M 61.519531 57.675781 " fill-opacity="1" fill-rule="nonzero"/><g clip-path="url(#124e79cfac)"><path fill="#e3caab" d="M 26.152344 19.074219 L 31.902344 19.074219 L 31.902344 130.671875 L 26.152344 130.671875 Z M 26.152344 19.074219 " fill-opacity="1" fill-rule="nonzero"/></g><path fill="#e3caab" d="M 35.667969 30.269531 C 35.921875 30.21875 36.179688 30.195312 36.433594 30.195312 C 36.574219 30.195312 36.714844 30.203125 36.855469 30.21875 L 36.855469 28.5625 L 42.195312 28.5625 L 42.195312 32.675781 L 40.152344 32.675781 C 40.257812 32.929688 40.34375 33.195312 40.394531 33.472656 L 40.441406 33.707031 L 42.539062 33.707031 C 42.972656 33.707031 43.324219 33.355469 43.324219 32.921875 L 43.324219 28.316406 C 43.324219 27.886719 42.972656 27.53125 42.539062 27.53125 L 33.230469 27.53125 C 32.796875 27.53125 32.445312 27.886719 32.445312 28.316406 L 32.445312 32.921875 C 32.445312 33.039062 32.472656 33.148438 32.519531 33.246094 C 32.632812 32.796875 32.820312 32.363281 33.089844 31.96875 C 33.691406 31.074219 34.609375 30.472656 35.667969 30.269531 Z M 35.125 28.535156 L 35.84375 28.535156 L 35.84375 29.910156 L 35.125 29.910156 Z M 33.652344 28.535156 L 34.371094 28.535156 L 34.371094 29.910156 L 33.652344 29.910156 Z M 33.652344 28.535156 " fill-opacity="1" fill-rule="nonzero"/><g clip-path="url(#ff3b762071)"><path fill="#e3caab" d="M 39.511719 33.640625 C 39.183594 31.941406 37.539062 30.828125 35.839844 31.152344 C 34.136719 31.480469 33.023438 33.125 33.351562 34.824219 L 36.910156 53.347656 C 37.035156 53.984375 37.351562 54.566406 37.816406 55.015625 L 44.777344 61.71875 L 51.148438 67.851562 L 52.867188 74.351562 L 56.839844 89.386719 L 45.46875 101.957031 C 44.6875 102.820312 44.238281 103.9375 44.207031 105.101562 L 43.617188 125.488281 C 43.539062 128.191406 45.671875 130.449219 48.375 130.527344 C 48.421875 130.527344 48.472656 130.527344 48.519531 130.527344 C 51.160156 130.527344 53.339844 128.425781 53.414062 125.769531 L 53.949219 107.191406 L 63.613281 96.507812 L 60.292969 104.136719 C 59.734375 105.417969 59.75 106.878906 60.335938 108.148438 L 69.550781 128.074219 C 70.378906 129.867188 72.148438 130.921875 74 130.921875 C 74.6875 130.921875 75.386719 130.777344 76.054688 130.46875 C 78.511719 129.332031 79.582031 126.421875 78.445312 123.964844 L 70.15625 106.03125 L 77.617188 88.894531 C 78.183594 87.585938 78.132812 86.167969 77.601562 84.960938 L 73.007812 67.582031 L 73.867188 67.292969 L 75.839844 74.761719 L 80.195312 70.148438 C 80.800781 69.507812 81.109375 68.644531 81.046875 67.765625 C 80.980469 66.886719 80.546875 66.074219 79.855469 65.53125 L 71.363281 58.847656 C 70.738281 58.359375 69.988281 58.144531 69.257812 58.183594 C 69.246094 58.179688 69.238281 58.175781 69.226562 58.171875 L 69.128906 58.195312 C 68.863281 58.21875 68.601562 58.277344 68.347656 58.371094 L 53.769531 61.667969 L 49.332031 57.394531 L 42.882812 51.1875 Z M 39.511719 33.640625 " fill-opacity="1" fill-rule="nonzero"/></g><path fill="#e3caab" d="M 88.570312 30.050781 L 90.921875 30.050781 L 90.921875 30.835938 L 88.570312 30.835938 Z M 88.570312 30.050781 " fill-opacity="1" fill-rule="nonzero"/><path fill="#e3caab" d="M 94.058594 30.050781 L 96.410156 30.050781 L 96.410156 30.835938 L 94.058594 30.835938 Z M 94.058594 30.050781 " fill-opacity="1" fill-rule="nonzero"/><path fill="#e3caab" d="M 83.082031 30.050781 L 85.433594 30.050781 L 85.433594 30.835938 L 83.082031 30.835938 Z M 83.082031 30.050781 " fill-opacity="1" fill-rule="nonzero"/><path fill="#e3caab" d="M 44.664062 30.050781 L 47.015625 30.050781 L 47.015625 30.835938 L 44.664062 30.835938 Z M 44.664062 30.050781 " fill-opacity="1" fill-rule="nonzero"/><path fill="#e3caab" d="M 77.59375 30.050781 L 79.945312 30.050781 L 79.945312 30.835938 L 77.59375 30.835938 Z M 77.59375 30.050781 " fill-opacity="1" fill-rule="nonzero"/><path fill="#e3caab" d="M 66.617188 30.050781 L 68.96875 30.050781 L 68.96875 30.835938 L 66.617188 30.835938 Z M 66.617188 30.050781 " fill-opacity="1" fill-rule="nonzero"/><path fill="#e3caab" d="M 72.105469 30.050781 L 74.457031 30.050781 L 74.457031 30.835938 L 72.105469 30.835938 Z M 72.105469 30.050781 " fill-opacity="1" fill-rule="nonzero"/><path fill="#e3caab" d="M 116.011719 30.050781 L 118.363281 30.050781 L 118.363281 30.835938 L 116.011719 30.835938 Z M 116.011719 30.050781 " fill-opacity="1" fill-rule="nonzero"/><g clip-path="url(#de6955ffb6)"><path fill="#e3caab" d="M 121.5 30.050781 L 123.851562 30.050781 L 123.851562 30.835938 L 121.5 30.835938 Z M 121.5 30.050781 " fill-opacity="1" fill-rule="nonzero"/></g><path fill="#e3caab" d="M 55.640625 30.050781 L 57.992188 30.050781 L 57.992188 30.835938 L 55.640625 30.835938 Z M 55.640625 30.050781 " fill-opacity="1" fill-rule="nonzero"/><path fill="#e3caab" d="M 61.128906 30.050781 L 63.480469 30.050781 L 63.480469 30.835938 L 61.128906 30.835938 Z M 61.128906 30.050781 " fill-opacity="1" fill-rule="nonzero"/><path fill="#e3caab" d="M 105.035156 30.050781 L 107.386719 30.050781 L 107.386719 30.835938 L 105.035156 30.835938 Z M 105.035156 30.050781 " fill-opacity="1" fill-rule="nonzero"/><path fill="#e3caab" d="M 99.546875 30.050781 L 101.898438 30.050781 L 101.898438 30.835938 L 99.546875 30.835938 Z M 99.546875 30.050781 " fill-opacity="1" fill-rule="nonzero"/><path fill="#e3caab" d="M 50.152344 30.050781 L 52.503906 30.050781 L 52.503906 30.835938 L 50.152344 30.835938 Z M 50.152344 30.050781 " fill-opacity="1" fill-rule="nonzero"/><path fill="#e3caab" d="M 110.523438 30.050781 L 112.875 30.050781 L 112.875 30.835938 L 110.523438 30.835938 Z M 110.523438 30.050781 " fill-opacity="1" fill-rule="nonzero"/></svg>