<svg xmlns="http://www.w3.org/2000/svg" xmlns:xlink="http://www.w3.org/1999/xlink" width="400" zoomAndPan="magnify" viewBox="0 0 300 187.499995" height="250" preserveAspectRatio="xMidYMid meet" version="1.0"><defs><g/><clipPath id="30e5858220"><path d="M 0.398438 0 L 299.601562 0 L 299.601562 187 L 0.398438 187 Z M 0.398438 0 " clip-rule="nonzero"/></clipPath><clipPath id="8431f18dec"><path d="M 96.292969 13.761719 L 100.761719 13.761719 L 100.761719 18.75 L 96.292969 18.75 Z M 96.292969 13.761719 " clip-rule="nonzero"/></clipPath><clipPath id="9ccebd349f"><path d="M 98.527344 13.761719 C 97.292969 13.761719 96.292969 14.875 96.292969 16.25 C 96.292969 17.625 97.292969 18.738281 98.527344 18.738281 C 99.761719 18.738281 100.761719 17.625 100.761719 16.25 C 100.761719 14.875 99.761719 13.761719 98.527344 13.761719 Z M 98.527344 13.761719 " clip-rule="nonzero"/></clipPath><clipPath id="914f857e4e"><path d="M 199.1875 13.761719 L 203.652344 13.761719 L 203.652344 18.75 L 199.1875 18.75 Z M 199.1875 13.761719 " clip-rule="nonzero"/></clipPath><clipPath id="d4ec910954"><path d="M 201.417969 13.761719 C 200.1875 13.761719 199.1875 14.875 199.1875 16.25 C 199.1875 17.625 200.1875 18.738281 201.417969 18.738281 C 202.652344 18.738281 203.652344 17.625 203.652344 16.25 C 203.652344 14.875 202.652344 13.761719 201.417969 13.761719 Z M 201.417969 13.761719 " clip-rule="nonzero"/></clipPath></defs><g clip-path="url(#30e5858220)"><path fill="#ffffff" d="M 0.398438 0 L 299.601562 0 L 299.601562 187 L 0.398438 187 Z M 0.398438 0 " fill-opacity="1" fill-rule="nonzero"/><path fill="#15203d" d="M 0.398438 0 L 299.601562 0 L 299.601562 187 L 0.398438 187 Z M 0.398438 0 " fill-opacity="1" fill-rule="nonzero"/></g><path stroke-linecap="butt" transform="matrix(0.748005, 0, 0, 0.748005, 9.898371, 167.254006)" fill="none" stroke-linejoin="miter" d="M 0.0000891726 4.000089 L 374.60056 4.000089 " stroke="#e3caab" stroke-width="8" stroke-opacity="1" stroke-miterlimit="4"/><g fill="#e3caab" fill-opacity="1"><g transform="translate(9.898371, 136.827672)"><g><path d="M 0.1875 -23.453125 L 7.25 -23.453125 L 7.25 -22.78125 L 5.390625 -22.78125 L 11.46875 -4.609375 L 17.671875 -22.78125 L 15.8125 -22.78125 L 15.8125 -23.453125 L 20.875 -23.453125 L 20.875 -22.78125 L 19.5 -22.78125 C 19.15625 -22.78125 18.921875 -22.601562 18.796875 -22.25 L 11.171875 0 L 9.90625 0 L 2.265625 -22.25 C 2.140625 -22.601562 1.90625 -22.78125 1.5625 -22.78125 L 0.1875 -22.78125 Z M 0.1875 -23.453125 "/></g></g></g><g fill="#e3caab" fill-opacity="1"><g transform="translate(30.961644, 136.827672)"><g><path d="M 19.390625 0 L 19.390625 -0.671875 L 21.140625 -0.671875 C 21.484375 -0.671875 21.65625 -0.816406 21.65625 -1.109375 L 21.65625 -20.140625 L 13.875 0 L 12.609375 0 L 4.84375 -19.578125 L 4.84375 -1.1875 C 4.84375 -0.84375 5.015625 -0.671875 5.359375 -0.671875 L 7.109375 -0.671875 L 7.109375 0 L 1.296875 0 L 1.296875 -0.671875 L 3.046875 -0.671875 C 3.398438 -0.671875 3.578125 -0.84375 3.578125 -1.1875 L 3.578125 -22.328125 C 3.578125 -22.628906 3.398438 -22.78125 3.046875 -22.78125 L 1.296875 -22.78125 L 1.296875 -23.453125 L 6.625 -23.453125 L 14.21875 -4.203125 L 21.65625 -23.453125 L 26.984375 -23.453125 L 26.984375 -22.78125 L 25.234375 -22.78125 C 24.890625 -22.78125 24.71875 -22.601562 24.71875 -22.25 L 24.71875 -1.109375 C 24.71875 -0.816406 24.890625 -0.671875 25.234375 -0.671875 L 26.984375 -0.671875 L 26.984375 0 Z M 19.390625 0 "/></g></g></g><g fill="#e3caab" fill-opacity="1"><g transform="translate(59.244485, 136.827672)"><g><path d="M 9.234375 0.453125 C 7.597656 0.453125 5.957031 0.00390625 4.3125 -0.890625 C 3.769531 -1.160156 3.398438 -1.296875 3.203125 -1.296875 C 2.828125 -1.296875 2.628906 -1.035156 2.609375 -0.515625 L 2.5625 0 L 1.859375 0 L 1.859375 -6.21875 L 2.53125 -6.21875 C 2.75 -4.300781 3.457031 -2.890625 4.65625 -1.984375 C 5.863281 -1.078125 7.289062 -0.625 8.9375 -0.625 C 10.59375 -0.625 11.847656 -1.070312 12.703125 -1.96875 C 13.566406 -2.863281 14 -3.921875 14 -5.140625 C 14 -7.078125 12.878906 -8.539062 10.640625 -9.53125 L 6.21875 -11.5 C 4.875 -12.09375 3.867188 -12.90625 3.203125 -13.9375 C 2.535156 -14.96875 2.203125 -16.078125 2.203125 -17.265625 C 2.203125 -19.078125 2.804688 -20.632812 4.015625 -21.9375 C 5.234375 -23.238281 6.984375 -23.890625 9.265625 -23.890625 C 10.609375 -23.890625 11.988281 -23.441406 13.40625 -22.546875 C 13.875 -22.273438 14.191406 -22.140625 14.359375 -22.140625 C 14.679688 -22.140625 14.859375 -22.398438 14.890625 -22.921875 L 14.921875 -23.671875 L 15.625 -23.671875 L 15.625 -17.234375 L 14.96875 -17.234375 C 14.769531 -19.140625 14.15625 -20.546875 13.125 -21.453125 C 12.09375 -22.359375 10.835938 -22.8125 9.359375 -22.8125 C 7.878906 -22.8125 6.738281 -22.40625 5.9375 -21.59375 C 5.132812 -20.789062 4.734375 -19.875 4.734375 -18.84375 C 4.734375 -17.820312 5.007812 -16.898438 5.5625 -16.078125 C 6.125 -15.253906 6.953125 -14.609375 8.046875 -14.140625 L 12.5 -12.171875 C 13.988281 -11.503906 15.113281 -10.628906 15.875 -9.546875 C 16.632812 -8.460938 17.015625 -7.300781 17.015625 -6.0625 C 17.015625 -4.300781 16.304688 -2.773438 14.890625 -1.484375 C 13.472656 -0.191406 11.585938 0.453125 9.234375 0.453125 Z M 9.234375 0.453125 "/></g></g></g><g fill="#e3caab" fill-opacity="1"><g transform="translate(77.739969, 136.827672)"><g/></g></g><g fill="#e3caab" fill-opacity="1"><g transform="translate(87.043539, 136.827672)"><g><path d="M 18.578125 0 L 18.53125 -0.515625 C 18.507812 -1.035156 18.3125 -1.296875 17.9375 -1.296875 C 17.738281 -1.296875 17.378906 -1.160156 16.859375 -0.890625 C 15.242188 0.00390625 13.617188 0.453125 11.984375 0.453125 C 8.859375 0.453125 6.296875 -0.625 4.296875 -2.78125 C 2.296875 -4.945312 1.296875 -7.921875 1.296875 -11.703125 C 1.296875 -15.484375 2.28125 -18.457031 4.25 -20.625 C 6.226562 -22.800781 8.804688 -23.890625 11.984375 -23.890625 C 13.597656 -23.890625 15.210938 -23.484375 16.828125 -22.671875 C 17.347656 -22.390625 17.71875 -22.25 17.9375 -22.25 C 18.3125 -22.25 18.507812 -22.507812 18.53125 -23.03125 L 18.578125 -23.671875 L 19.28125 -23.671875 L 19.28125 -17.234375 L 18.609375 -17.234375 C 18.390625 -19.140625 17.675781 -20.546875 16.46875 -21.453125 C 15.269531 -22.359375 13.773438 -22.8125 11.984375 -22.8125 C 9.722656 -22.8125 7.90625 -21.816406 6.53125 -19.828125 C 5.15625 -17.847656 4.46875 -15.132812 4.46875 -11.6875 C 4.46875 -8.238281 5.160156 -5.53125 6.546875 -3.5625 C 7.941406 -1.601562 9.753906 -0.625 11.984375 -0.625 C 13.773438 -0.625 15.269531 -1.078125 16.46875 -1.984375 C 17.675781 -2.890625 18.390625 -4.300781 18.609375 -6.21875 L 19.28125 -6.21875 L 19.28125 0 Z M 18.578125 0 "/></g></g></g><g fill="#e3caab" fill-opacity="1"><g transform="translate(107.995167, 136.827672)"><g><path d="M 4.25 -2.78125 C 2.28125 -4.945312 1.296875 -7.925781 1.296875 -11.71875 C 1.296875 -15.519531 2.28125 -18.5 4.25 -20.65625 C 6.226562 -22.8125 8.800781 -23.890625 11.96875 -23.890625 C 15.132812 -23.890625 17.703125 -22.8125 19.671875 -20.65625 C 21.640625 -18.5 22.625 -15.519531 22.625 -11.71875 C 22.625 -7.925781 21.640625 -4.945312 19.671875 -2.78125 C 17.703125 -0.625 15.132812 0.453125 11.96875 0.453125 C 8.800781 0.453125 6.226562 -0.625 4.25 -2.78125 Z M 6.609375 -19.90625 C 5.179688 -17.894531 4.46875 -15.164062 4.46875 -11.71875 C 4.46875 -8.269531 5.179688 -5.539062 6.609375 -3.53125 C 8.035156 -1.519531 9.8125 -0.515625 11.9375 -0.515625 C 14.070312 -0.515625 15.859375 -1.519531 17.296875 -3.53125 C 18.742188 -5.539062 19.46875 -8.269531 19.46875 -11.71875 C 19.46875 -15.164062 18.742188 -17.894531 17.296875 -19.90625 C 15.859375 -21.914062 14.070312 -22.921875 11.9375 -22.921875 C 9.8125 -22.921875 8.035156 -21.914062 6.609375 -19.90625 Z M 6.609375 -19.90625 "/></g></g></g><g fill="#e3caab" fill-opacity="1"><g transform="translate(131.92394, 136.827672)"><g><path d="M 17.984375 -0.78125 C 18.347656 -0.78125 18.644531 -0.9375 18.875 -1.25 C 19.113281 -1.5625 19.234375 -1.929688 19.234375 -2.359375 C 19.234375 -2.796875 19.195312 -3.203125 19.125 -3.578125 L 19.84375 -3.6875 C 19.9375 -3.3125 19.984375 -2.898438 19.984375 -2.453125 C 19.984375 -1.554688 19.71875 -0.847656 19.1875 -0.328125 C 18.65625 0.191406 17.96875 0.453125 17.125 0.453125 C 15.007812 0.453125 13.953125 -0.820312 13.953125 -3.375 C 13.953125 -5.9375 13.628906 -7.816406 12.984375 -9.015625 C 12.335938 -10.222656 11.023438 -10.828125 9.046875 -10.828125 L 6.625 -10.828125 L 6.625 -1.1875 C 6.625 -0.84375 6.796875 -0.671875 7.140625 -0.671875 L 9.640625 -0.671875 L 9.640625 0 L 1.296875 0 L 1.296875 -0.671875 L 3.046875 -0.671875 C 3.398438 -0.671875 3.578125 -0.84375 3.578125 -1.1875 L 3.578125 -22.328125 C 3.578125 -22.628906 3.398438 -22.78125 3.046875 -22.78125 L 1.296875 -22.78125 L 1.296875 -23.453125 L 10.5625 -23.453125 C 12.65625 -23.453125 14.429688 -22.878906 15.890625 -21.734375 C 17.359375 -20.597656 18.09375 -19.070312 18.09375 -17.15625 C 18.09375 -15.613281 17.613281 -14.316406 16.65625 -13.265625 C 15.695312 -12.210938 14.4375 -11.488281 12.875 -11.09375 C 14.632812 -10.5 15.753906 -9.429688 16.234375 -7.890625 C 16.597656 -6.628906 16.78125 -5.128906 16.78125 -3.390625 C 16.78125 -1.648438 17.179688 -0.78125 17.984375 -0.78125 Z M 10.390625 -22.40625 L 6.625 -22.40625 L 6.625 -11.90625 L 10.390625 -11.90625 C 11.867188 -11.90625 13.023438 -12.425781 13.859375 -13.46875 C 14.691406 -14.507812 15.109375 -15.738281 15.109375 -17.15625 C 15.109375 -18.570312 14.691406 -19.800781 13.859375 -20.84375 C 13.023438 -21.882812 11.867188 -22.40625 10.390625 -22.40625 Z M 10.390625 -22.40625 "/></g></g></g><g fill="#e3caab" fill-opacity="1"><g transform="translate(151.647496, 136.827672)"><g><path d="M 10.828125 -22.40625 L 10.828125 -1.109375 C 10.828125 -0.816406 11.003906 -0.671875 11.359375 -0.671875 L 14.59375 -0.671875 L 14.59375 0 L 4.015625 0 L 4.015625 -0.671875 L 7.25 -0.671875 C 7.601562 -0.671875 7.78125 -0.816406 7.78125 -1.109375 L 7.78125 -22.40625 L 2.984375 -22.40625 C 2.335938 -22.40625 1.988281 -22.132812 1.9375 -21.59375 L 1.375 -17.234375 L 0.515625 -17.234375 L 0.515625 -18.984375 C 0.515625 -21.160156 0.40625 -22.757812 0.1875 -23.78125 C 0.976562 -23.5625 2.351562 -23.453125 4.3125 -23.453125 L 14.296875 -23.453125 C 16.253906 -23.453125 17.628906 -23.5625 18.421875 -23.78125 C 18.203125 -22.757812 18.09375 -21.160156 18.09375 -18.984375 L 18.09375 -17.234375 L 17.234375 -17.234375 L 16.671875 -21.59375 C 16.617188 -22.132812 16.269531 -22.40625 15.625 -22.40625 Z M 10.828125 -22.40625 "/></g></g></g><g fill="#e3caab" fill-opacity="1"><g transform="translate(170.254625, 136.827672)"><g><path d="M 3.578125 -1.1875 L 3.578125 -22.328125 C 3.578125 -22.628906 3.398438 -22.78125 3.046875 -22.78125 L 1.296875 -22.78125 L 1.296875 -23.453125 L 8.890625 -23.453125 L 8.890625 -22.78125 L 7.140625 -22.78125 C 6.796875 -22.78125 6.625 -22.628906 6.625 -22.328125 L 6.625 -1.1875 C 6.625 -0.84375 6.796875 -0.671875 7.140625 -0.671875 L 8.890625 -0.671875 L 8.890625 0 L 1.296875 0 L 1.296875 -0.671875 L 3.046875 -0.671875 C 3.398438 -0.671875 3.578125 -0.84375 3.578125 -1.1875 Z M 3.578125 -1.1875 "/></g></g></g><g fill="#e3caab" fill-opacity="1"><g transform="translate(180.45133, 136.827672)"><g><path d="M 18.828125 0 L 4.84375 -20.765625 L 4.84375 -1.1875 C 4.84375 -0.84375 5.015625 -0.671875 5.359375 -0.671875 L 7.109375 -0.671875 L 7.109375 0 L 1.296875 0 L 1.296875 -0.671875 L 3.046875 -0.671875 C 3.398438 -0.671875 3.578125 -0.84375 3.578125 -1.1875 L 3.578125 -22.328125 C 3.578125 -22.628906 3.398438 -22.78125 3.046875 -22.78125 L 1.296875 -22.78125 L 1.296875 -23.453125 L 6.78125 -23.453125 L 18.765625 -5.734375 L 18.765625 -22.25 C 18.765625 -22.601562 18.585938 -22.78125 18.234375 -22.78125 L 16.484375 -22.78125 L 16.484375 -23.453125 L 22.296875 -23.453125 L 22.296875 -22.78125 L 20.546875 -22.78125 C 20.203125 -22.78125 20.03125 -22.628906 20.03125 -22.328125 L 20.03125 0 Z M 18.828125 0 "/></g></g></g><g fill="#e3caab" fill-opacity="1"><g transform="translate(203.859111, 136.827672)"><g><path d="M 21.4375 0 L 13.8125 0 L 13.8125 -0.671875 L 16.234375 -0.671875 L 13.625 -7.859375 L 5.4375 -7.859375 L 2.828125 -0.671875 L 5.25 -0.671875 L 5.25 0 L -0.375 0 L -0.375 -0.671875 L 1 -0.671875 C 1.351562 -0.671875 1.59375 -0.84375 1.71875 -1.1875 L 9.90625 -23.453125 L 11.171875 -23.453125 L 19.359375 -1.1875 C 19.484375 -0.84375 19.71875 -0.671875 20.0625 -0.671875 L 21.4375 -0.671875 Z M 9.5625 -19.0625 L 5.84375 -8.890625 L 13.25 -8.890625 Z M 9.5625 -19.0625 "/></g></g></g><g fill="#e3caab" fill-opacity="1"><g transform="translate(224.922373, 136.827672)"><g><path d="M 1.296875 -22.78125 L 1.296875 -23.453125 L 10.75 -23.453125 C 13.90625 -23.453125 16.472656 -22.40625 18.453125 -20.3125 C 20.441406 -18.226562 21.4375 -15.363281 21.4375 -11.71875 C 21.4375 -8.070312 20.441406 -5.207031 18.453125 -3.125 C 16.472656 -1.039062 13.90625 0 10.75 0 L 1.296875 0 L 1.296875 -0.671875 L 3.046875 -0.671875 C 3.398438 -0.671875 3.578125 -0.816406 3.578125 -1.109375 L 3.578125 -22.328125 C 3.578125 -22.628906 3.398438 -22.78125 3.046875 -22.78125 Z M 10.75 -22.40625 L 6.625 -22.40625 L 6.625 -1.046875 L 10.75 -1.046875 C 12.882812 -1.046875 14.671875 -2 16.109375 -3.90625 C 17.554688 -5.820312 18.28125 -8.425781 18.28125 -11.71875 C 18.28125 -15.019531 17.554688 -17.625 16.109375 -19.53125 C 14.671875 -21.445312 12.882812 -22.40625 10.75 -22.40625 Z M 10.75 -22.40625 "/></g></g></g><g fill="#e3caab" fill-opacity="1"><g transform="translate(247.66029, 136.827672)"><g><path d="M 4.25 -2.78125 C 2.28125 -4.945312 1.296875 -7.925781 1.296875 -11.71875 C 1.296875 -15.519531 2.28125 -18.5 4.25 -20.65625 C 6.226562 -22.8125 8.800781 -23.890625 11.96875 -23.890625 C 15.132812 -23.890625 17.703125 -22.8125 19.671875 -20.65625 C 21.640625 -18.5 22.625 -15.519531 22.625 -11.71875 C 22.625 -7.925781 21.640625 -4.945312 19.671875 -2.78125 C 17.703125 -0.625 15.132812 0.453125 11.96875 0.453125 C 8.800781 0.453125 6.226562 -0.625 4.25 -2.78125 Z M 6.609375 -19.90625 C 5.179688 -17.894531 4.46875 -15.164062 4.46875 -11.71875 C 4.46875 -8.269531 5.179688 -5.539062 6.609375 -3.53125 C 8.035156 -1.519531 9.8125 -0.515625 11.9375 -0.515625 C 14.070312 -0.515625 15.859375 -1.519531 17.296875 -3.53125 C 18.742188 -5.539062 19.46875 -8.269531 19.46875 -11.71875 C 19.46875 -15.164062 18.742188 -17.894531 17.296875 -19.90625 C 15.859375 -21.914062 14.070312 -22.921875 11.9375 -22.921875 C 9.8125 -22.921875 8.035156 -21.914062 6.609375 -19.90625 Z M 6.609375 -19.90625 "/></g></g></g><g fill="#e3caab" fill-opacity="1"><g transform="translate(271.589053, 136.827672)"><g><path d="M 9.234375 0.453125 C 7.597656 0.453125 5.957031 0.00390625 4.3125 -0.890625 C 3.769531 -1.160156 3.398438 -1.296875 3.203125 -1.296875 C 2.828125 -1.296875 2.628906 -1.035156 2.609375 -0.515625 L 2.5625 0 L 1.859375 0 L 1.859375 -6.21875 L 2.53125 -6.21875 C 2.75 -4.300781 3.457031 -2.890625 4.65625 -1.984375 C 5.863281 -1.078125 7.289062 -0.625 8.9375 -0.625 C 10.59375 -0.625 11.847656 -1.070312 12.703125 -1.96875 C 13.566406 -2.863281 14 -3.921875 14 -5.140625 C 14 -7.078125 12.878906 -8.539062 10.640625 -9.53125 L 6.21875 -11.5 C 4.875 -12.09375 3.867188 -12.90625 3.203125 -13.9375 C 2.535156 -14.96875 2.203125 -16.078125 2.203125 -17.265625 C 2.203125 -19.078125 2.804688 -20.632812 4.015625 -21.9375 C 5.234375 -23.238281 6.984375 -23.890625 9.265625 -23.890625 C 10.609375 -23.890625 11.988281 -23.441406 13.40625 -22.546875 C 13.875 -22.273438 14.191406 -22.140625 14.359375 -22.140625 C 14.679688 -22.140625 14.859375 -22.398438 14.890625 -22.921875 L 14.921875 -23.671875 L 15.625 -23.671875 L 15.625 -17.234375 L 14.96875 -17.234375 C 14.769531 -19.140625 14.15625 -20.546875 13.125 -21.453125 C 12.09375 -22.359375 10.835938 -22.8125 9.359375 -22.8125 C 7.878906 -22.8125 6.738281 -22.40625 5.9375 -21.59375 C 5.132812 -20.789062 4.734375 -19.875 4.734375 -18.84375 C 4.734375 -17.820312 5.007812 -16.898438 5.5625 -16.078125 C 6.125 -15.253906 6.953125 -14.609375 8.046875 -14.140625 L 12.5 -12.171875 C 13.988281 -11.503906 15.113281 -10.628906 15.875 -9.546875 C 16.632812 -8.460938 17.015625 -7.300781 17.015625 -6.0625 C 17.015625 -4.300781 16.304688 -2.773438 14.890625 -1.484375 C 13.472656 -0.191406 11.585938 0.453125 9.234375 0.453125 Z M 9.234375 0.453125 "/></g></g></g><g fill="#d9d9d9" fill-opacity="1"><g transform="translate(36.380865, 159.382887)"><g><path d="M 10.8125 0 L 1.71875 0 L 1.71875 -10.671875 L 10.8125 -10.671875 L 10.8125 -9.90625 L 2.53125 -9.90625 L 2.53125 -5.703125 L 9.9375 -5.703125 L 9.9375 -4.96875 L 2.53125 -4.96875 L 2.53125 -0.765625 L 10.8125 -0.765625 Z M 10.8125 0 "/></g></g></g><g fill="#d9d9d9" fill-opacity="1"><g transform="translate(48.235352, 159.382887)"><g><path d="M 10.796875 0 L 9.828125 0 L 5.625 -4.890625 L 1.421875 0 L 0.46875 0 L 5.140625 -5.453125 L 0.671875 -10.671875 L 1.640625 -10.671875 L 5.625 -6.015625 L 9.625 -10.671875 L 10.578125 -10.671875 L 6.09375 -5.453125 Z M 10.796875 0 "/></g></g></g><g fill="#d9d9d9" fill-opacity="1"><g transform="translate(59.485562, 159.382887)"><g><path d="M 11 -1.4375 L 11.234375 -0.734375 C 10.566406 -0.429688 9.863281 -0.195312 9.125 -0.03125 C 8.382812 0.132812 7.625 0.21875 6.84375 0.21875 C 5.800781 0.21875 4.847656 0.03125 3.984375 -0.34375 C 3.128906 -0.726562 2.445312 -1.328125 1.9375 -2.140625 C 1.425781 -2.960938 1.171875 -4.023438 1.171875 -5.328125 C 1.171875 -6.648438 1.425781 -7.71875 1.9375 -8.53125 C 2.445312 -9.34375 3.128906 -9.9375 3.984375 -10.3125 C 4.847656 -10.6875 5.800781 -10.875 6.84375 -10.875 C 7.625 -10.875 8.382812 -10.796875 9.125 -10.640625 C 9.863281 -10.484375 10.566406 -10.25 11.234375 -9.9375 L 11 -9.203125 C 10.363281 -9.503906 9.695312 -9.734375 9 -9.890625 C 8.300781 -10.046875 7.582031 -10.125 6.84375 -10.125 C 5.945312 -10.125 5.128906 -9.957031 4.390625 -9.625 C 3.660156 -9.300781 3.070312 -8.789062 2.625 -8.09375 C 2.1875 -7.394531 1.96875 -6.472656 1.96875 -5.328125 C 1.96875 -4.203125 2.1875 -3.285156 2.625 -2.578125 C 3.070312 -1.878906 3.660156 -1.363281 4.390625 -1.03125 C 5.128906 -0.707031 5.945312 -0.546875 6.84375 -0.546875 C 7.582031 -0.546875 8.300781 -0.625 9 -0.78125 C 9.695312 -0.9375 10.363281 -1.15625 11 -1.4375 Z M 11 -1.4375 "/></g></g></g><g fill="#d9d9d9" fill-opacity="1"><g transform="translate(71.411143, 159.382887)"><g><path d="M 10.8125 0 L 1.71875 0 L 1.71875 -10.671875 L 10.8125 -10.671875 L 10.8125 -9.90625 L 2.53125 -9.90625 L 2.53125 -5.703125 L 9.9375 -5.703125 L 9.9375 -4.96875 L 2.53125 -4.96875 L 2.53125 -0.765625 L 10.8125 -0.765625 Z M 10.8125 0 "/></g></g></g><g fill="#d9d9d9" fill-opacity="1"><g transform="translate(83.26563, 159.382887)"><g><path d="M 10.8125 0 L 1.71875 0 L 1.71875 -10.671875 L 2.53125 -10.671875 L 2.53125 -0.765625 L 10.8125 -0.765625 Z M 10.8125 0 "/></g></g></g><g fill="#d9d9d9" fill-opacity="1"><g transform="translate(94.498062, 159.382887)"><g><path d="M 10.8125 0 L 1.71875 0 L 1.71875 -10.671875 L 10.8125 -10.671875 L 10.8125 -9.90625 L 2.53125 -9.90625 L 2.53125 -5.703125 L 9.9375 -5.703125 L 9.9375 -4.96875 L 2.53125 -4.96875 L 2.53125 -0.765625 L 10.8125 -0.765625 Z M 10.8125 0 "/></g></g></g><g fill="#d9d9d9" fill-opacity="1"><g transform="translate(106.35255, 159.382887)"><g><path d="M 11.890625 0 L 11.09375 0 L 2.53125 -9.546875 L 2.53125 0 L 1.71875 0 L 1.71875 -10.671875 L 2.53125 -10.671875 L 11.09375 -1.109375 L 11.09375 -10.671875 L 11.890625 -10.671875 Z M 11.890625 0 "/></g></g></g><g fill="#d9d9d9" fill-opacity="1"><g transform="translate(119.966554, 159.382887)"><g><path d="M 11 -1.4375 L 11.234375 -0.734375 C 10.566406 -0.429688 9.863281 -0.195312 9.125 -0.03125 C 8.382812 0.132812 7.625 0.21875 6.84375 0.21875 C 5.800781 0.21875 4.847656 0.03125 3.984375 -0.34375 C 3.128906 -0.726562 2.445312 -1.328125 1.9375 -2.140625 C 1.425781 -2.960938 1.171875 -4.023438 1.171875 -5.328125 C 1.171875 -6.648438 1.425781 -7.71875 1.9375 -8.53125 C 2.445312 -9.34375 3.128906 -9.9375 3.984375 -10.3125 C 4.847656 -10.6875 5.800781 -10.875 6.84375 -10.875 C 7.625 -10.875 8.382812 -10.796875 9.125 -10.640625 C 9.863281 -10.484375 10.566406 -10.25 11.234375 -9.9375 L 11 -9.203125 C 10.363281 -9.503906 9.695312 -9.734375 9 -9.890625 C 8.300781 -10.046875 7.582031 -10.125 6.84375 -10.125 C 5.945312 -10.125 5.128906 -9.957031 4.390625 -9.625 C 3.660156 -9.300781 3.070312 -8.789062 2.625 -8.09375 C 2.1875 -7.394531 1.96875 -6.472656 1.96875 -5.328125 C 1.96875 -4.203125 2.1875 -3.285156 2.625 -2.578125 C 3.070312 -1.878906 3.660156 -1.363281 4.390625 -1.03125 C 5.128906 -0.707031 5.945312 -0.546875 6.84375 -0.546875 C 7.582031 -0.546875 8.300781 -0.625 9 -0.78125 C 9.695312 -0.9375 10.363281 -1.15625 11 -1.4375 Z M 11 -1.4375 "/></g></g></g><g fill="#d9d9d9" fill-opacity="1"><g transform="translate(131.892135, 159.382887)"><g><path d="M 2.59375 0 L 1.78125 0 L 1.78125 -10.671875 L 2.59375 -10.671875 Z M 2.59375 0 "/></g></g></g><g fill="#d9d9d9" fill-opacity="1"><g transform="translate(136.264255, 159.382887)"><g><path d="M 12.640625 0 L 11.75 0 L 10.28125 -2.78125 L 2.859375 -2.78125 L 1.40625 0 L 0.5 0 L 6.1875 -10.671875 L 6.96875 -10.671875 Z M 9.875 -3.53125 L 6.59375 -9.765625 L 3.265625 -3.53125 Z M 9.875 -3.53125 "/></g></g></g><g fill="#d9d9d9" fill-opacity="1"><g transform="translate(149.416155, 159.382887)"><g/></g></g><g fill="#d9d9d9" fill-opacity="1"><g transform="translate(154.392553, 159.382887)"><g><path d="M 6.796875 0 L 1.71875 0 L 1.71875 -10.671875 L 6.796875 -10.671875 C 7.828125 -10.671875 8.757812 -10.484375 9.59375 -10.109375 C 10.425781 -9.742188 11.085938 -9.171875 11.578125 -8.390625 C 12.078125 -7.609375 12.328125 -6.585938 12.328125 -5.328125 C 12.328125 -4.078125 12.078125 -3.0625 11.578125 -2.28125 C 11.085938 -1.5 10.425781 -0.921875 9.59375 -0.546875 C 8.757812 -0.179688 7.828125 0 6.796875 0 Z M 2.53125 -0.765625 L 6.796875 -0.765625 C 7.671875 -0.765625 8.46875 -0.914062 9.1875 -1.21875 C 9.90625 -1.53125 10.476562 -2.023438 10.90625 -2.703125 C 11.332031 -3.378906 11.546875 -4.253906 11.546875 -5.328125 C 11.546875 -6.421875 11.332031 -7.300781 10.90625 -7.96875 C 10.476562 -8.644531 9.90625 -9.132812 9.1875 -9.4375 C 8.46875 -9.75 7.671875 -9.90625 6.796875 -9.90625 L 2.53125 -9.90625 Z M 2.53125 -0.765625 "/></g></g></g><g fill="#d9d9d9" fill-opacity="1"><g transform="translate(167.882147, 159.382887)"><g><path d="M 10.8125 0 L 1.71875 0 L 1.71875 -10.671875 L 10.8125 -10.671875 L 10.8125 -9.90625 L 2.53125 -9.90625 L 2.53125 -5.703125 L 9.9375 -5.703125 L 9.9375 -4.96875 L 2.53125 -4.96875 L 2.53125 -0.765625 L 10.8125 -0.765625 Z M 10.8125 0 "/></g></g></g><g fill="#d9d9d9" fill-opacity="1"><g transform="translate(179.736634, 159.382887)"><g><path d="M 0.921875 -0.734375 L 1.15625 -1.4375 C 1.820312 -1.15625 2.546875 -0.929688 3.328125 -0.765625 C 4.109375 -0.597656 4.890625 -0.515625 5.671875 -0.515625 C 6.160156 -0.515625 6.644531 -0.554688 7.125 -0.640625 C 7.601562 -0.734375 8.035156 -0.867188 8.421875 -1.046875 C 8.816406 -1.234375 9.128906 -1.46875 9.359375 -1.75 C 9.597656 -2.039062 9.71875 -2.390625 9.71875 -2.796875 C 9.71875 -3.242188 9.554688 -3.597656 9.234375 -3.859375 C 8.921875 -4.117188 8.503906 -4.316406 7.984375 -4.453125 C 7.460938 -4.597656 6.890625 -4.71875 6.265625 -4.8125 C 5.640625 -4.914062 5.015625 -5.019531 4.390625 -5.125 C 3.773438 -5.238281 3.207031 -5.394531 2.6875 -5.59375 C 2.164062 -5.789062 1.742188 -6.0625 1.421875 -6.40625 C 1.097656 -6.757812 0.9375 -7.226562 0.9375 -7.8125 C 0.9375 -8.53125 1.160156 -9.113281 1.609375 -9.5625 C 2.066406 -10.007812 2.65625 -10.335938 3.375 -10.546875 C 4.09375 -10.765625 4.847656 -10.875 5.640625 -10.875 C 6.429688 -10.875 7.195312 -10.796875 7.9375 -10.640625 C 8.6875 -10.484375 9.398438 -10.25 10.078125 -9.9375 L 9.8125 -9.203125 C 9.175781 -9.492188 8.503906 -9.71875 7.796875 -9.875 C 7.085938 -10.039062 6.363281 -10.125 5.625 -10.125 C 4.945312 -10.125 4.3125 -10.039062 3.71875 -9.875 C 3.132812 -9.71875 2.660156 -9.46875 2.296875 -9.125 C 1.929688 -8.789062 1.75 -8.351562 1.75 -7.8125 C 1.75 -7.300781 1.914062 -6.914062 2.25 -6.65625 C 2.582031 -6.394531 3.035156 -6.203125 3.609375 -6.078125 C 4.179688 -5.953125 4.820312 -5.828125 5.53125 -5.703125 C 6.476562 -5.566406 7.328125 -5.398438 8.078125 -5.203125 C 8.828125 -5.015625 9.421875 -4.738281 9.859375 -4.375 C 10.304688 -4.019531 10.53125 -3.503906 10.53125 -2.828125 C 10.53125 -2.285156 10.382812 -1.820312 10.09375 -1.4375 C 9.800781 -1.050781 9.414062 -0.734375 8.9375 -0.484375 C 8.46875 -0.242188 7.945312 -0.0664062 7.375 0.046875 C 6.800781 0.160156 6.222656 0.21875 5.640625 0.21875 C 4.847656 0.21875 4.03125 0.132812 3.1875 -0.03125 C 2.351562 -0.195312 1.597656 -0.429688 0.921875 -0.734375 Z M 0.921875 -0.734375 "/></g></g></g><g fill="#d9d9d9" fill-opacity="1"><g transform="translate(191.324522, 159.382887)"><g><path d="M 6.796875 0 L 1.71875 0 L 1.71875 -10.671875 L 6.796875 -10.671875 C 7.828125 -10.671875 8.757812 -10.484375 9.59375 -10.109375 C 10.425781 -9.742188 11.085938 -9.171875 11.578125 -8.390625 C 12.078125 -7.609375 12.328125 -6.585938 12.328125 -5.328125 C 12.328125 -4.078125 12.078125 -3.0625 11.578125 -2.28125 C 11.085938 -1.5 10.425781 -0.921875 9.59375 -0.546875 C 8.757812 -0.179688 7.828125 0 6.796875 0 Z M 2.53125 -0.765625 L 6.796875 -0.765625 C 7.671875 -0.765625 8.46875 -0.914062 9.1875 -1.21875 C 9.90625 -1.53125 10.476562 -2.023438 10.90625 -2.703125 C 11.332031 -3.378906 11.546875 -4.253906 11.546875 -5.328125 C 11.546875 -6.421875 11.332031 -7.300781 10.90625 -7.96875 C 10.476562 -8.644531 9.90625 -9.132812 9.1875 -9.4375 C 8.46875 -9.75 7.671875 -9.90625 6.796875 -9.90625 L 2.53125 -9.90625 Z M 2.53125 -0.765625 "/></g></g></g><g fill="#d9d9d9" fill-opacity="1"><g transform="translate(204.814115, 159.382887)"><g><path d="M 10.8125 0 L 1.71875 0 L 1.71875 -10.671875 L 10.8125 -10.671875 L 10.8125 -9.90625 L 2.53125 -9.90625 L 2.53125 -5.703125 L 9.9375 -5.703125 L 9.9375 -4.96875 L 2.53125 -4.96875 L 2.53125 -0.765625 L 10.8125 -0.765625 Z M 10.8125 0 "/></g></g></g><g fill="#d9d9d9" fill-opacity="1"><g transform="translate(216.668603, 159.382887)"><g/></g></g><g fill="#d9d9d9" fill-opacity="1"><g transform="translate(221.645001, 159.382887)"><g><path d="M 5.703125 0 L 0.59375 0 L 0.59375 -0.734375 L 2.8125 -0.734375 L 2.8125 -9.90625 L 0.59375 -9.5 L 0.59375 -10.125 L 3.625 -10.671875 L 3.625 -0.734375 L 5.703125 -0.734375 Z M 5.703125 0 "/></g></g></g><g fill="#d9d9d9" fill-opacity="1"><g transform="translate(227.936589, 159.382887)"><g><path d="M 1.625 -0.390625 L 1.828125 -1.078125 C 2.421875 -0.898438 3.035156 -0.765625 3.671875 -0.671875 C 4.316406 -0.585938 4.941406 -0.546875 5.546875 -0.546875 C 6.878906 -0.546875 7.953125 -0.867188 8.765625 -1.515625 C 9.585938 -2.160156 10.046875 -3.234375 10.140625 -4.734375 C 9.515625 -4.359375 8.828125 -4.054688 8.078125 -3.828125 C 7.328125 -3.609375 6.535156 -3.5 5.703125 -3.5 C 5.148438 -3.5 4.59375 -3.5625 4.03125 -3.6875 C 3.46875 -3.8125 2.945312 -4.015625 2.46875 -4.296875 C 2 -4.585938 1.617188 -4.96875 1.328125 -5.4375 C 1.046875 -5.914062 0.90625 -6.5 0.90625 -7.1875 C 0.90625 -7.894531 1.050781 -8.484375 1.34375 -8.953125 C 1.644531 -9.429688 2.035156 -9.8125 2.515625 -10.09375 C 3.003906 -10.375 3.535156 -10.570312 4.109375 -10.6875 C 4.691406 -10.8125 5.257812 -10.875 5.8125 -10.875 C 6.832031 -10.875 7.726562 -10.6875 8.5 -10.3125 C 9.269531 -9.9375 9.875 -9.335938 10.3125 -8.515625 C 10.75 -7.703125 10.96875 -6.632812 10.96875 -5.3125 C 10.96875 -4.007812 10.75 -2.953125 10.3125 -2.140625 C 9.875 -1.328125 9.25 -0.726562 8.4375 -0.34375 C 7.632812 0.03125 6.679688 0.21875 5.578125 0.21875 C 4.203125 0.21875 2.882812 0.015625 1.625 -0.390625 Z M 10.171875 -5.546875 C 10.148438 -6.628906 9.945312 -7.503906 9.5625 -8.171875 C 9.1875 -8.835938 8.675781 -9.328125 8.03125 -9.640625 C 7.394531 -9.960938 6.65625 -10.125 5.8125 -10.125 C 5.375 -10.125 4.914062 -10.070312 4.4375 -9.96875 C 3.957031 -9.875 3.507812 -9.71875 3.09375 -9.5 C 2.675781 -9.28125 2.335938 -8.976562 2.078125 -8.59375 C 1.828125 -8.21875 1.703125 -7.75 1.703125 -7.1875 C 1.703125 -6.632812 1.820312 -6.171875 2.0625 -5.796875 C 2.300781 -5.429688 2.613281 -5.132812 3 -4.90625 C 3.394531 -4.675781 3.828125 -4.507812 4.296875 -4.40625 C 4.773438 -4.3125 5.25 -4.265625 5.71875 -4.265625 C 6.488281 -4.265625 7.257812 -4.375 8.03125 -4.59375 C 8.800781 -4.820312 9.515625 -5.140625 10.171875 -5.546875 Z M 10.171875 -5.546875 "/></g></g></g><g fill="#d9d9d9" fill-opacity="1"><g transform="translate(240.022121, 159.382887)"><g><path d="M 1.625 -0.390625 L 1.828125 -1.078125 C 2.421875 -0.898438 3.035156 -0.765625 3.671875 -0.671875 C 4.316406 -0.585938 4.941406 -0.546875 5.546875 -0.546875 C 6.878906 -0.546875 7.953125 -0.867188 8.765625 -1.515625 C 9.585938 -2.160156 10.046875 -3.234375 10.140625 -4.734375 C 9.515625 -4.359375 8.828125 -4.054688 8.078125 -3.828125 C 7.328125 -3.609375 6.535156 -3.5 5.703125 -3.5 C 5.148438 -3.5 4.59375 -3.5625 4.03125 -3.6875 C 3.46875 -3.8125 2.945312 -4.015625 2.46875 -4.296875 C 2 -4.585938 1.617188 -4.96875 1.328125 -5.4375 C 1.046875 -5.914062 0.90625 -6.5 0.90625 -7.1875 C 0.90625 -7.894531 1.050781 -8.484375 1.34375 -8.953125 C 1.644531 -9.429688 2.035156 -9.8125 2.515625 -10.09375 C 3.003906 -10.375 3.535156 -10.570312 4.109375 -10.6875 C 4.691406 -10.8125 5.257812 -10.875 5.8125 -10.875 C 6.832031 -10.875 7.726562 -10.6875 8.5 -10.3125 C 9.269531 -9.9375 9.875 -9.335938 10.3125 -8.515625 C 10.75 -7.703125 10.96875 -6.632812 10.96875 -5.3125 C 10.96875 -4.007812 10.75 -2.953125 10.3125 -2.140625 C 9.875 -1.328125 9.25 -0.726562 8.4375 -0.34375 C 7.632812 0.03125 6.679688 0.21875 5.578125 0.21875 C 4.203125 0.21875 2.882812 0.015625 1.625 -0.390625 Z M 10.171875 -5.546875 C 10.148438 -6.628906 9.945312 -7.503906 9.5625 -8.171875 C 9.1875 -8.835938 8.675781 -9.328125 8.03125 -9.640625 C 7.394531 -9.960938 6.65625 -10.125 5.8125 -10.125 C 5.375 -10.125 4.914062 -10.070312 4.4375 -9.96875 C 3.957031 -9.875 3.507812 -9.71875 3.09375 -9.5 C 2.675781 -9.28125 2.335938 -8.976562 2.078125 -8.59375 C 1.828125 -8.21875 1.703125 -7.75 1.703125 -7.1875 C 1.703125 -6.632812 1.820312 -6.171875 2.0625 -5.796875 C 2.300781 -5.429688 2.613281 -5.132812 3 -4.90625 C 3.394531 -4.675781 3.828125 -4.507812 4.296875 -4.40625 C 4.773438 -4.3125 5.25 -4.265625 5.71875 -4.265625 C 6.488281 -4.265625 7.257812 -4.375 8.03125 -4.59375 C 8.800781 -4.820312 9.515625 -5.140625 10.171875 -5.546875 Z M 10.171875 -5.546875 "/></g></g></g><g fill="#d9d9d9" fill-opacity="1"><g transform="translate(252.107653, 159.382887)"><g><path d="M 0.984375 -0.734375 L 1.1875 -1.4375 C 1.851562 -1.15625 2.597656 -0.929688 3.421875 -0.765625 C 4.253906 -0.609375 5.035156 -0.53125 5.765625 -0.53125 C 6.222656 -0.53125 6.691406 -0.578125 7.171875 -0.671875 C 7.648438 -0.773438 8.09375 -0.941406 8.5 -1.171875 C 8.90625 -1.410156 9.226562 -1.726562 9.46875 -2.125 C 9.707031 -2.519531 9.828125 -3.015625 9.828125 -3.609375 C 9.828125 -4.171875 9.71875 -4.632812 9.5 -5 C 9.28125 -5.363281 8.988281 -5.648438 8.625 -5.859375 C 8.257812 -6.078125 7.847656 -6.226562 7.390625 -6.3125 C 6.941406 -6.40625 6.492188 -6.453125 6.046875 -6.453125 C 5.210938 -6.453125 4.46875 -6.328125 3.8125 -6.078125 C 3.15625 -5.828125 2.648438 -5.457031 2.296875 -4.96875 L 1.5 -4.96875 L 1.96875 -10.671875 L 10.203125 -10.671875 L 10.203125 -9.90625 L 2.71875 -9.90625 L 2.359375 -5.890625 C 2.796875 -6.347656 3.335938 -6.679688 3.984375 -6.890625 C 4.640625 -7.109375 5.34375 -7.21875 6.09375 -7.21875 C 6.632812 -7.21875 7.171875 -7.160156 7.703125 -7.046875 C 8.234375 -6.929688 8.71875 -6.738281 9.15625 -6.46875 C 9.601562 -6.207031 9.960938 -5.84375 10.234375 -5.375 C 10.503906 -4.90625 10.640625 -4.316406 10.640625 -3.609375 C 10.640625 -2.890625 10.5 -2.28125 10.21875 -1.78125 C 9.9375 -1.289062 9.5625 -0.894531 9.09375 -0.59375 C 8.625 -0.300781 8.101562 -0.09375 7.53125 0.03125 C 6.957031 0.15625 6.378906 0.21875 5.796875 0.21875 C 5.003906 0.21875 4.175781 0.132812 3.3125 -0.03125 C 2.457031 -0.195312 1.679688 -0.429688 0.984375 -0.734375 Z M 0.984375 -0.734375 "/></g></g></g><path stroke-linecap="butt" transform="matrix(0.889332, 0, 0, 0.889332, 99.870478, 14.916284)" fill="none" stroke-linejoin="miter" d="M 0.000691936 1.499682 L 112.734513 1.499682 " stroke="#e3caab" stroke-width="3" stroke-opacity="1" stroke-miterlimit="4"/><path stroke-linecap="butt" transform="matrix(0.889332, 0, 0, 0.889332, 104.912668, 99.13614)" fill="none" stroke-linejoin="miter" d="M 0.00156781 1.002105 L 31.780154 1.002105 " stroke="#e3caab" stroke-width="2" stroke-opacity="1" stroke-miterlimit="4"/><g clip-path="url(#8431f18dec)"><g clip-path="url(#9ccebd349f)"><path fill="#e3caab" d="M 96.292969 13.761719 L 100.761719 13.761719 L 100.761719 18.734375 L 96.292969 18.734375 Z M 96.292969 13.761719 " fill-opacity="1" fill-rule="nonzero"/></g></g><g clip-path="url(#914f857e4e)"><g clip-path="url(#d4ec910954)"><path fill="#e3caab" d="M 199.1875 13.761719 L 203.652344 13.761719 L 203.652344 18.734375 L 199.1875 18.734375 Z M 199.1875 13.761719 " fill-opacity="1" fill-rule="nonzero"/></g></g><path stroke-linecap="butt" transform="matrix(0, 0.889332, -0.889332, 0, 196.5134, 16.255891)" fill="none" stroke-linejoin="miter" d="M 0.00216032 1.499679 L 95.201756 1.499679 " stroke="#e3caab" stroke-width="3" stroke-opacity="1" stroke-miterlimit="4"/><path stroke-linecap="butt" transform="matrix(0.00000000155218, 0.889332, -0.889332, 0.00000000155218, 106.241059, 16.255891)" fill="none" stroke-linejoin="miter" d="M 0.00216032 1.500911 L 95.201756 1.500911 " stroke="#e3caab" stroke-width="3" stroke-opacity="1" stroke-miterlimit="4"/><path stroke-linecap="butt" transform="matrix(0.475456, 0.751567, -0.751567, 0.475456, 160.325315, 15.081575)" fill="none" stroke-linejoin="miter" d="M 0.730591 1.310832 C 25.610559 15.122114 50.492389 15.119692 75.377445 1.309629 " stroke="#e3caab" stroke-width="3" stroke-opacity="1" stroke-miterlimit="4"/><path stroke-linecap="butt" transform="matrix(-0.417122, 0.785443, -0.785443, -0.417122, 188.345329, 68.080239)" fill="none" stroke-linejoin="miter" d="M 0.763306 1.292542 C 14.688263 9.523607 28.607617 9.521852 42.529366 1.292975 " stroke="#e3caab" stroke-width="3" stroke-opacity="1" stroke-miterlimit="4"/><path stroke-linecap="butt" transform="matrix(0.405773, 0.791366, -0.791366, 0.405773, 156.32359, 15.500919)" fill="none" stroke-linejoin="miter" d="M 0.509245 0.862523 C 23.020255 14.142558 45.534438 14.141211 68.04979 0.862389 " stroke="#e3caab" stroke-width="2" stroke-opacity="1" stroke-miterlimit="4"/><path stroke-linecap="butt" transform="matrix(0.49696, -0.737524, 0.737524, 0.49696, 103.588984, 72.231376)" fill="none" stroke-linejoin="miter" d="M 0.722979 1.314795 C 25.814829 15.121379 50.904299 15.121763 75.995029 1.313492 " stroke="#e3caab" stroke-width="3" stroke-opacity="1" stroke-miterlimit="4"/><path stroke-linecap="butt" transform="matrix(0.424268, -0.781606, 0.781606, 0.424268, 116.118093, 69.743259)" fill="none" stroke-linejoin="miter" d="M 0.524654 0.853531 C 23.067252 14.660183 45.612722 14.661573 68.153014 0.852076 " stroke="#e3caab" stroke-width="2" stroke-opacity="1" stroke-miterlimit="4"/><path stroke-linecap="butt" transform="matrix(-0.441686, -0.771897, 0.771897, -0.441686, 131.584645, 102.118907)" fill="none" stroke-linejoin="miter" d="M 0.791263 1.274256 C 14.95915 10.059353 29.12239 10.06168 43.289158 1.275794 " stroke="#e3caab" stroke-width="3" stroke-opacity="1" stroke-miterlimit="4"/><path stroke-linecap="butt" transform="matrix(0.889332, 0, 0, 0.889332, 125.731371, 78.224091)" fill="none" stroke-linejoin="miter" d="M -0.00101452 0.999841 L 56.576728 0.999841 " stroke="#e3caab" stroke-width="2" stroke-opacity="1" stroke-miterlimit="4"/><path stroke-linecap="butt" transform="matrix(0.889332, 0, 0, 0.889332, 168.239167, 100.025478)" fill="none" stroke-linejoin="miter" d="M -0.000996524 0.999159 L 31.781982 0.999159 " stroke="#e3caab" stroke-width="2" stroke-opacity="1" stroke-miterlimit="4"/></svg>